<?xml version="1.0" encoding="UTF-8" standalone="no"?>
<!DOCTYPE svg PUBLIC "-//W3C//DTD SVG 1.1//EN"
 "http://www.w3.org/Graphics/SVG/1.1/DTD/svg11.dtd">
<!-- Generated by graphviz version 2.42.4 (0)
 -->
<!-- Pages: 1 -->
<svg width="133pt" height="233pt"
 viewBox="0.00 0.00 133.00 233.00" xmlns="http://www.w3.org/2000/svg" xmlns:xlink="http://www.w3.org/1999/xlink">
<g id="graph0" class="graph" transform="scale(1 1) rotate(0) translate(4 229)">
<g id="a_graph0"><a xlink:title=" ">
<polygon fill="white" stroke="transparent" points="-4,4 -4,-229 129,-229 129,4 -4,4"/>
</a>
</g>
<!-- 1 -->
<g id="node1" class="node">
<title>1</title>
<polygon fill="#ff0000" stroke="#ff0000" points="99.5,-225 44.5,-225 44.5,-184 99.5,-184 99.5,-225"/>
<text text-anchor="middle" x="72" y="-213" font-family="Arial" font-size="10.00" fill="#ffffff">main</text>
<text text-anchor="middle" x="72" y="-202" font-family="Arial" font-size="10.00" fill="#ffffff">100.00%</text>
<text text-anchor="middle" x="72" y="-191" font-family="Arial" font-size="10.00" fill="#ffffff">(3.57%)</text>
</g>
<!-- 2 -->
<g id="node2" class="node">
<title>2</title>
<polygon fill="#59c508" stroke="#59c508" points="60,-144 4,-144 4,-92 60,-92 60,-144"/>
<text text-anchor="middle" x="32" y="-132" font-family="Arial" font-size="10.00" fill="#ffffff">func1</text>
<text text-anchor="middle" x="32" y="-121" font-family="Arial" font-size="10.00" fill="#ffffff">60.77%</text>
<text text-anchor="middle" x="32" y="-110" font-family="Arial" font-size="10.00" fill="#ffffff">(57.29%)</text>
<text text-anchor="middle" x="32" y="-99" font-family="Arial" font-size="10.00" fill="#ffffff">1×</text>
</g>
<!-- 1&#45;&gt;2 -->
<g id="edge1" class="edge">
<title>1&#45;&gt;2</title>
<path fill="none" stroke="#59c508" stroke-width="2.43" d="M49.98,-183.77C47.71,-181 45.64,-178.05 44,-175 40.18,-167.91 37.58,-159.7 35.8,-151.79"/>
<polygon fill="#59c508" stroke="#59c508" stroke-width="2.43" points="38.46,-151.16 34.29,-144.03 33.1,-152.21 38.46,-151.16"/>
<text text-anchor="middle" x="61" y="-167" font-family="Arial" font-size="10.00" fill="#59c508">60.77%</text>
<text text-anchor="middle" x="61" y="-156" font-family="Arial" font-size="10.00" fill="#59c508">1×</text>
</g>
<!-- 3 -->
<g id="node3" class="node">
<title>3</title>
<polygon fill="#0ba262" stroke="#0ba262" points="125,-144 69,-144 69,-92 125,-92 125,-144"/>
<text text-anchor="middle" x="97" y="-132" font-family="Arial" font-size="10.00" fill="#ffffff">func2</text>
<text text-anchor="middle" x="97" y="-121" font-family="Arial" font-size="10.00" fill="#ffffff">35.66%</text>
<text text-anchor="middle" x="97" y="-110" font-family="Arial" font-size="10.00" fill="#ffffff">(35.66%)</text>
<text text-anchor="middle" x="97" y="-99" font-family="Arial" font-size="10.00" fill="#ffffff">1×</text>
</g>
<!-- 1&#45;&gt;3 -->
<g id="edge2" class="edge">
<title>1&#45;&gt;3</title>
<path fill="none" stroke="#0ba262" stroke-width="1.43" d="M77.8,-183.9C80.77,-173.85 84.46,-161.38 87.81,-150.06"/>
<polygon fill="#0ba262" stroke="#0ba262" stroke-width="1.43" points="89.84,-150.62 89.52,-144.27 85.81,-149.42 89.84,-150.62"/>
<text text-anchor="middle" x="103" y="-167" font-family="Arial" font-size="10.00" fill="#0ba262">35.66%</text>
<text text-anchor="middle" x="103" y="-156" font-family="Arial" font-size="10.00" fill="#0ba262">1×</text>
</g>
<!-- 4 -->
<g id="node4" class="node">
<title>4</title>
<polygon fill="#0d1c77" stroke="#0d1c77" points="64,-52 0,-52 0,0 64,0 64,-52"/>
<text text-anchor="middle" x="32" y="-40" font-family="Arial" font-size="10.00" fill="#ffffff">new_func1</text>
<text text-anchor="middle" x="32" y="-29" font-family="Arial" font-size="10.00" fill="#ffffff">3.48%</text>
<text text-anchor="middle" x="32" y="-18" font-family="Arial" font-size="10.00" fill="#ffffff">(3.48%)</text>
<text text-anchor="middle" x="32" y="-7" font-family="Arial" font-size="10.00" fill="#ffffff">1×</text>
</g>
<!-- 2&#45;&gt;4 -->
<g id="edge3" class="edge">
<title>2&#45;&gt;4</title>
<path fill="none" stroke="#0d1c77" stroke-width="0.5" d="M32,-91.93C32,-80.71 32,-67.42 32,-55.8"/>
<polygon fill="#0d1c77" stroke="#0d1c77" stroke-width="0.5" points="33.23,-55.75 32,-52.25 30.78,-55.75 33.23,-55.75"/>
<text text-anchor="middle" x="46" y="-75" font-family="Arial" font-size="10.00" fill="#0d1c77">3.48%</text>
<text text-anchor="middle" x="46" y="-64" font-family="Arial" font-size="10.00" fill="#0d1c77">1×</text>
</g>
</g>
</svg>
